<?xml version="1.0" encoding="utf-8"?>
<!-- Generator: Adobe Illustrator 21.0.0, SVG Export Plug-In . SVG Version: 6.00 Build 0)  -->
<svg version="1.1" id="Calque_1" xmlns="http://www.w3.org/2000/svg" xmlns:xlink="http://www.w3.org/1999/xlink" x="0px" y="0px"
	 viewBox="0 0 300 300" style="enable-background:new 0 0 300 300;" xml:space="preserve">
<style type="text/css">
	.st0{opacity:0.18;}
	.st1{fill:#FFFFFF;}
	.st2{fill:url(#SVGID_1_);}
</style>
<g class="st0">
	<path class="st1" d="M162.3,232c0.1-1.9-0.1-3.9,0.4-5.7c1.3-4.9,6-7.8,11.2-7.1c4.7,0.6,8.4,4.9,8.4,9.9c0,1-0.1,1.9-0.2,2.9
		C175.5,232,168.9,232,162.3,232z"/>
	<path class="st1" d="M140.8,232c-0.7-7.8,3.2-12.9,9.9-12.8c6.6,0.1,11.2,6.4,9.3,12.8C153.6,232,147.2,232,140.8,232z"/>
	<path class="st1" d="M185,232c-1.1-5.6,1.2-10,6-11.7c4.4-1.5,9.5,0.4,11.2,4.7c0.9,2.1,0.6,4.7,0.8,7C197,232,191,232,185,232z"/>
	<path class="st1" d="M119.9,232c0-0.4-0.1-0.8-0.1-1.2c-0.6-6.1,3.2-10.8,8.8-11c5.7-0.2,9.8,4.5,9.4,10.7c0,0.5,0,1-0.1,1.4
		C131.9,232,125.9,232,119.9,232z"/>
	<path class="st1" d="M207.7,232c-1.2-3.7-0.3-7.1,2.5-9.4c2.7-2.3,6.4-2.7,9.5-1c3.3,1.8,4.7,4.7,4.5,8.4c0,0.7-0.2,1.3-0.2,2
		C218.5,232,213.1,232,207.7,232z"/>
	<path class="st1" d="M98.9,232c0-0.8-0.1-1.5-0.1-2.3c-0.2-5.2,3.7-9.1,8.8-8.9c4.9,0.2,8.4,4.4,7.9,9.5c-0.1,0.6-0.1,1.1-0.2,1.7
		C109.8,232,104.4,232,98.9,232z"/>
	<path class="st1" d="M229.8,232c0-0.8-0.1-1.5-0.1-2.3c-0.1-4.7,3.1-8.3,7.7-8.3c4.5,0,7.9,3.6,7.7,8.3c0,0.8-0.1,1.5-0.2,2.3
		C239.8,232,234.8,232,229.8,232z"/>
	<path class="st1" d="M78,232c0-0.8,0-1.5-0.1-2.3c-0.1-3.3,1.3-5.8,4.2-7.3c2.7-1.4,5.5-1.1,7.9,0.8c2.5,1.9,3.5,4.5,2.8,7.7
		c-0.1,0.4-0.2,0.8-0.2,1.1C87.7,232,82.8,232,78,232z"/>
	<path class="st1" d="M252.4,232c-0.1-1.1-0.3-2.1-0.3-3.2c0.2-3.7,3.4-6.7,7.1-6.7c3.7,0.1,6.7,3.1,6.8,6.9c0,1-0.1,1.9-0.1,2.9
		C261.4,232,256.9,232,252.4,232z"/>
	<path class="st1" d="M57.6,232c-1.2-3.6-0.5-6.3,2.1-8.3c2.3-1.7,5.6-1.7,7.9,0c2.6,1.9,3.3,4.7,2.2,8.3
		C65.8,232,61.7,232,57.6,232z"/>
	<path class="st1" d="M275.1,232c-1.3-5,1.1-8.9,5.5-9c3.4-0.1,6.1,2.4,6.3,5.9c0,1-0.1,2.1-0.1,3.2C282.9,232,279,232,275.1,232z"
		/>
	<path class="st1" d="M36.7,232c-1.2-2.8-0.9-5.3,1.4-7.3c1.9-1.7,4.2-2,6.5-0.8c2.8,1.4,3.7,3.8,3.2,6.7c-0.1,0.5,0,1-0.1,1.4
		C44.1,232,40.4,232,36.7,232z"/>
	<path class="st1" d="M297.8,232c-1.4-4.1,0.1-7.8,3.7-8c1.7-0.1,3.8,0.7,5.1,1.9c1.8,1.6,1.7,4,0.5,6.1
		C304,232,300.9,232,297.8,232z"/>
	<path class="st1" d="M15.8,232c-1.3-4-0.1-6.9,3.2-7.9c2.9-0.8,6,1.1,6.4,4.2c0.2,1.2-0.2,2.4-0.3,3.7C22,232,18.9,232,15.8,232z"
		/>
	<path class="st1" d="M327.5,207.6c-0.3,0.5-0.6,0.9-1,1.4c-1.3,1.7-3,2.5-5.1,1.8c-2.2-0.7-3.6-2.4-3.1-4.6c0.4-1.6,1.6-3.3,3-4.1
		c1.9-1.1,3.9-0.1,5.3,1.7c0.3,0.5,0.6,1,0.9,1.5C327.5,206,327.5,206.8,327.5,207.6z"/>
	<path class="st1" d="M-5.2,232c-1.2-3.5-0.7-6.1,1.9-6.8c1.4-0.4,3.5-0.1,4.7,0.8c2.2,1.5,1.7,3.8,0.9,6C-0.1,232-2.6,232-5.2,232z
		"/>
	<path class="st1" d="M320.5,232c-1.5-2.1-1.3-4.2,0.4-6c2-2.1,4.3-1.7,6.6-0.3c0,2.1,0,4.2,0,6.4C325.1,232,322.8,232,320.5,232z"
		/>
	<path class="st1" d="M-26.1,232c-0.3-0.7-0.9-1.5-0.7-2.1c0.4-1.4,0.8-3.1,1.9-3.8c0.9-0.6,3.1-0.5,3.9,0.2c1,0.8,1.2,2.6,1.5,4
		c0.1,0.5-0.5,1.2-0.8,1.8C-22.2,232-24.1,232-26.1,232z"/>
	<path class="st1" d="M327.5,144.2c-0.6,0.1-1.2,0.4-1.7,0.2c-1.3-0.4-3-0.7-3.6-1.6c-0.7-1-0.8-3-0.2-3.9c0.7-1,2.4-1.4,3.8-1.9
		c0.5-0.2,1.1,0.1,1.7,0.2C327.5,139.5,327.5,141.9,327.5,144.2z"/>
	<path class="st1" d="M170.6,210.1c0,5.3-4.1,9.5-9.3,9.5c-5,0-9.2-4.2-9.2-9.3c-0.1-5.2,4.2-9.5,9.3-9.5
		C166.6,200.9,170.6,205,170.6,210.1z"/>
	<path class="st1" d="M140,201c5.1,0.2,9,4.4,8.9,9.5c-0.1,5.1-4.4,9.2-9.4,9.1c-5.1-0.1-9.3-4.6-9.1-9.7
		C130.7,204.7,134.9,200.8,140,201z"/>
	<path class="st1" d="M197,207.3c0,4.8-4,8.9-8.8,9c-4.8,0.1-8.9-3.9-9-8.8c-0.1-4.9,4-9.2,8.9-9.1C193,198.4,197,202.4,197,207.3z"
		/>
	<path class="st1" d="M171.9,199.8c-4.8-0.3-8.3-4.3-8-9.2c0.3-4.6,4.3-8.1,8.8-7.8c4.6,0.3,8.3,4.3,8,8.9
		C180.4,196.3,176.4,200,171.9,199.8z"/>
	<path class="st1" d="M150.5,193.8c-4.7,0-8.5-3.9-8.4-8.5c0.1-4.5,3.8-8.3,8.3-8.4c4.6-0.1,8.4,3.7,8.5,8.5
		C158.9,190.1,155.2,193.8,150.5,193.8z"/>
	<path class="st1" d="M211.8,215.1c-4.5,0-8.2-3.8-8.2-8.4c0-4.5,3.6-8.2,8-8.3c4.5-0.1,8.3,3.7,8.4,8.2
		C220,211.3,216.3,215,211.8,215.1z"/>
	<path class="st1" d="M175,172.3c0-4.7,3.7-8.4,8.2-8.4c4.4,0.1,8.1,3.7,8.1,8.2c0.1,4.5-3.8,8.4-8.3,8.3
		C178.6,180.5,175,176.9,175,172.3z"/>
	<path class="st1" d="M192.3,186.9c0-4.5,3.7-8.2,8.1-8.3c4.5-0.1,8.3,3.8,8.3,8.3c0,4.5-3.9,8.4-8.4,8.3
		C195.8,195.1,192.2,191.4,192.3,186.9z"/>
	<path class="st1" d="M120.8,191.4c-0.1-4.6,3.4-8.2,7.9-8.3c4.5,0,8.1,3.6,8.1,8.1c0,4.4-3.4,8-7.8,8.1
		C124.6,199.5,120.9,195.9,120.8,191.4z"/>
	<path class="st1" d="M117.9,180.4c-4.5,0-8.1-3.6-8-8.2c0.1-4.4,3.6-8,7.9-8.1c4.4-0.1,8.1,3.6,8.2,8.1
		C126.1,176.7,122.4,180.4,117.9,180.4z"/>
	<path class="st1" d="M112.9,215.4c-4.5,0-8.1-3.8-8-8.2c0.1-4.5,3.8-8.1,8.3-8c4.4,0.1,7.9,3.7,7.9,8.1
		C121,211.8,117.4,215.4,112.9,215.4z"/>
	<path class="st1" d="M162,172.1c-4.2,0.1-7.6-3.3-7.7-7.4c-0.1-4.3,3.3-7.8,7.6-7.8c4.2,0,7.5,3.3,7.5,7.6
		C169.4,168.7,166.1,172.1,162,172.1z"/>
	<path class="st1" d="M139.2,172.1c-4.1,0-7.6-3.5-7.6-7.6c0-4.2,3.4-7.6,7.6-7.6c4.2,0,7.5,3.3,7.5,7.6
		C146.7,168.7,143.4,172.1,139.2,172.1z"/>
	<path class="st1" d="M93.1,187c0-4.2,3.3-7.6,7.5-7.7c4.1,0,7.6,3.4,7.6,7.6c0,4.1-3.4,7.7-7.5,7.7C96.6,194.6,93.2,191.2,93.1,187
		z"/>
	<path class="st1" d="M241.9,206.4c0.1,4.2-3.3,7.6-7.5,7.6c-4.2,0-7.6-3.3-7.5-7.6c0-4.1,3.3-7.5,7.3-7.6
		C238.3,198.8,241.9,202.3,241.9,206.4z"/>
	<path class="st1" d="M201.3,153.3c0,4.1-3.2,7.5-7.3,7.5c-4.1,0-7.4-3.2-7.4-7.3c-0.1-4.3,3.2-7.6,7.4-7.6
		C198.1,145.9,201.3,149.1,201.3,153.3z"/>
	<path class="st1" d="M89.3,214c-4.1,0-7.3-3.3-7.2-7.4c0.1-4.1,3.4-7.3,7.5-7.2c3.9,0.1,7.1,3.3,7.1,7.3
		C96.7,210.8,93.4,214.1,89.3,214z"/>
	<path class="st1" d="M225.7,192.5c-3.9,0-6.9-3.2-7-7.1c0-4,3.2-7.2,7.2-7.1c3.9,0.1,6.9,3.3,6.8,7.2
		C232.7,189.4,229.6,192.5,225.7,192.5z"/>
	<path class="st1" d="M218.9,167.3c0,3.9-3.2,7.1-7,7c-3.8,0-7-3.3-7-7.1c0-3.9,3.2-7,7.1-7C215.8,160.2,218.9,163.3,218.9,167.3z"
		/>
	<path class="st1" d="M114,153.4c0,3.8-3.3,7-7.1,6.9c-3.8-0.1-6.9-3.4-6.8-7.2c0.1-3.7,3.2-6.7,6.9-6.7
		C111,146.4,114.1,149.5,114,153.4z"/>
	<path class="st1" d="M68.5,185.5c-0.1-4,2.9-7.1,6.8-7.1c3.8,0,6.8,2.9,6.9,6.7c0.1,4-2.8,7.1-6.6,7.3
		C71.7,192.5,68.5,189.4,68.5,185.5z"/>
	<path class="st1" d="M250,206.5c0-3.8,3-6.9,6.7-6.9c3.7,0,6.8,3.2,6.7,6.9c-0.1,3.6-3.1,6.7-6.6,6.7
		C253.1,213.3,250,210.3,250,206.5z"/>
	<path class="st1" d="M172.9,151.3c-3.8,0-6.7-3-6.6-6.9c0.1-3.7,3-6.6,6.7-6.6c3.8,0,6.8,3,6.8,6.8
		C179.7,148.4,176.7,151.3,172.9,151.3z"/>
	<path class="st1" d="M150.7,148.3c-3.8,0-6.9-2.9-6.9-6.7c0-3.8,3-6.8,6.8-6.8c3.7,0,6.6,2.8,6.7,6.6
		C157.3,145.2,154.5,148.3,150.7,148.3z"/>
	<path class="st1" d="M66.7,199.9c3.7,0,6.6,3.1,6.5,6.7c-0.1,3.5-3.1,6.5-6.5,6.5c-3.6,0-6.7-3-6.7-6.7
		C60.1,202.9,63.1,199.9,66.7,199.9z"/>
	<path class="st1" d="M121.5,144.4c0.1-3.7,3.1-6.7,6.7-6.6c3.5,0.1,6.4,3.1,6.4,6.6c0,3.7-2.9,6.7-6.6,6.7
		C124.4,151.2,121.5,148.2,121.5,144.4z"/>
	<path class="st1" d="M231.9,164.8c0-3.6,2.8-6.5,6.4-6.6c3.6-0.1,6.7,3,6.7,6.6c0,3.5-2.9,6.5-6.4,6.6
		C234.9,171.5,231.9,168.5,231.9,164.8z"/>
	<path class="st1" d="M256.1,184.8c-0.1,3.6-3,6.4-6.5,6.4c-3.4-0.1-6.4-3.2-6.3-6.6c0.1-3.5,3.1-6.4,6.6-6.3
		C253.4,178.2,256.1,181.1,256.1,184.8z"/>
	<path class="st1" d="M205,127.9c3.5,0.1,6.3,3.2,6.1,6.7c-0.2,3.4-3.1,6.1-6.5,6c-3.4-0.1-6.2-3-6.1-6.4
		C198.5,130.7,201.5,127.8,205,127.9z"/>
	<path class="st1" d="M89.5,160.9c3.6,0.2,6.2,3.1,6,6.8c-0.2,3.4-3.2,6.1-6.6,6c-3.5-0.1-6.4-3.3-6.2-6.7
		C82.9,163.4,85.9,160.7,89.5,160.9z"/>
	<path class="st1" d="M223.2,154.1c-3.6,0-6.3-2.8-6.3-6.5c0.1-3.5,2.9-6.3,6.3-6.3c3.5,0,6.4,3,6.3,6.5
		C229.4,151.4,226.6,154.1,223.2,154.1z"/>
	<path class="st1" d="M90.1,134.2c0.1-3.5,2.9-6.3,6.3-6.2c3.4,0.1,6.1,3,6.1,6.5c-0.1,3.5-2.9,6.3-6.3,6.2
		C92.7,140.6,90,137.7,90.1,134.2z"/>
	<path class="st1" d="M51,190.9c-3.5-0.2-6-3.1-5.8-6.6c0.2-3.5,3-6.1,6.5-5.9c3.4,0.2,6.1,3.1,5.9,6.6
		C57.4,188.5,54.5,191.1,51,190.9z"/>
	<path class="st1" d="M139.2,126.2c-3.3,0-5.9-2.6-6-5.8c-0.1-3.4,2.6-6.2,6-6.2c3.2,0,5.9,2.6,6,5.9
		C145.3,123.5,142.6,126.2,139.2,126.2z"/>
	<path class="st1" d="M161.8,126.2c-3.4,0-6-2.9-5.9-6.2c0.1-3.2,2.9-5.9,6.1-5.8c3.3,0.1,6,2.9,5.9,6.3
		C167.7,123.8,165.1,126.3,161.8,126.2z"/>
	<path class="st1" d="M278.8,212.4c-3.3,0-5.9-2.6-6-5.9c-0.1-3.4,2.6-6.1,6-6.1c3.2,0,5.9,2.7,6,5.9
		C284.9,209.6,282.2,212.4,278.8,212.4z"/>
	<path class="st1" d="M257.4,163.2c0.2-3.3,2.9-5.8,6.2-5.7c3.2,0.1,5.8,2.9,5.7,6.1c-0.1,3.4-2.9,6-6.3,5.8
		C259.7,169.2,257.3,166.5,257.4,163.2z"/>
	<path class="st1" d="M234.2,122.5c3.3,0,5.9,2.5,6,5.8c0.1,3.4-2.6,6.1-6,6.1c-3.3,0-5.8-2.6-5.8-5.9
		C228.4,125.1,230.9,122.6,234.2,122.5z"/>
	<path class="st1" d="M122.8,125c0,3.3-2.6,5.9-5.8,5.9c-3.3,0-5.8-2.6-5.8-5.9c0-3.3,2.6-5.8,5.9-5.8
		C120.3,119.1,122.8,121.7,122.8,125z"/>
	<path class="st1" d="M44.3,212.3c-3.3,0-5.8-2.6-5.8-5.9c0-3.3,2.6-5.9,5.9-5.8c3.3,0,5.8,2.6,5.8,5.9
		C50.2,209.8,47.6,212.3,44.3,212.3z"/>
	<path class="st1" d="M184,130.9c-3.3-0.1-5.9-2.8-5.8-6c0.1-3.3,2.8-5.8,6-5.8c3.3,0.1,5.8,2.7,5.8,6
		C189.9,128.4,187.2,131,184,130.9z"/>
	<path class="st1" d="M77.9,153.6c-3.3,0-5.8-2.6-5.8-5.9c0-3.1,2.5-5.7,5.7-5.8c3.2-0.1,5.9,2.6,6,5.8
		C83.8,151,81.2,153.6,77.9,153.6z"/>
	<path class="st1" d="M57,164.9c0-3.3,2.6-6,5.8-6c3,0,5.7,2.6,5.8,5.7c0.1,3.2-2.4,6-5.7,6.1C59.7,170.8,57,168.2,57,164.9z"/>
	<path class="st1" d="M272.9,190.1c-3.1,0-5.7-2.7-5.7-5.8c0-3.1,2.5-5.8,5.6-5.8c3.3-0.1,5.9,2.6,5.8,5.9
		C278.6,187.5,276,190.1,272.9,190.1z"/>
	<path class="st1" d="M215.5,121c-3.2-0.1-5.6-2.7-5.5-5.8c0.1-3.2,2.7-5.6,5.9-5.5c3.1,0.1,5.4,2.6,5.4,5.7
		C221.3,118.6,218.7,121.1,215.5,121z"/>
	<path class="st1" d="M250.4,150.1c-3.1,0-5.5-2.4-5.5-5.5c0-3,2.4-5.4,5.3-5.4c3,0,5.6,2.5,5.6,5.5
		C255.8,147.7,253.3,150.1,250.4,150.1z"/>
	<path class="st1" d="M287.4,168c-2.9,0-5.3-2.4-5.3-5.3c0-3,2.5-5.6,5.5-5.5c2.9,0.1,5.2,2.5,5.1,5.5
		C292.7,165.7,290.3,168.1,287.4,168z"/>
	<path class="st1" d="M61.6,128.4c0-3,2.4-5.3,5.4-5.2c2.9,0.1,5.3,2.5,5.2,5.4c-0.1,2.9-2.5,5.2-5.4,5.2
		C63.7,133.7,61.5,131.4,61.6,128.4z"/>
	<path class="st1" d="M250.6,109.4c-0.1,2.9-2.5,5.2-5.4,5.2c-3-0.1-5.2-2.4-5.2-5.4c0.1-3,2.4-5.3,5.4-5.2
		C248.4,104,250.7,106.5,250.6,109.4z"/>
	<path class="st1" d="M50.9,150c-2.9,0.1-5.4-2.3-5.5-5.2c-0.1-3,2.2-5.4,5.2-5.4c3-0.1,5.3,2.1,5.4,5.2
		C56.1,147.6,53.9,149.9,50.9,150z"/>
	<path class="st1" d="M306,206.3c0,3-2.2,5.4-5.2,5.4c-2.9,0-5.3-2.3-5.4-5.3c0-3,2.3-5.3,5.2-5.4C303.7,201,306,203.3,306,206.3z"
		/>
	<path class="st1" d="M173.2,105.1c-2.9,0.1-5.3-2.4-5.3-5.3c0-2.8,2.2-5.2,5-5.3c2.8-0.1,5.4,2.3,5.5,5.2
		C178.6,102.4,176.1,105,173.2,105.1z"/>
	<path class="st1" d="M150.6,102.9c-3,0-5.3-2.3-5.2-5.3c0-2.9,2.3-5.1,5.1-5.2c2.9,0,5.4,2.4,5.3,5.3
		C155.7,100.6,153.4,102.9,150.6,102.9z"/>
	<path class="st1" d="M37.7,168.7c-3,0-5.2-2.3-5.2-5.4c0.1-2.9,2.4-5.1,5.2-5.1c2.8,0,5.2,2.3,5.2,5.1
		C43.1,166.3,40.7,168.7,37.7,168.7z"/>
	<path class="st1" d="M85.4,120.5c-2.9,0-5.1-2.2-5.2-5.1c-0.1-3,2.3-5.4,5.2-5.4c2.8,0,5.2,2.4,5.2,5.1
		C90.8,118.1,88.4,120.5,85.4,120.5z"/>
	<path class="st1" d="M22.1,211.6c-2.8-0.1-5.1-2.5-5-5.4c0.1-2.8,2.5-5.1,5.3-5c2.8,0.1,5.1,2.5,5,5.3
		C27.3,209.4,24.9,211.7,22.1,211.6z"/>
	<path class="st1" d="M195,110.9c-2.8,0-5.1-2.5-5.1-5.3c0-2.9,2.3-5.1,5.1-5.2c3,0,5.3,2.3,5.2,5.4
		C200.1,108.7,197.8,111,195,110.9z"/>
	<path class="st1" d="M122.8,99.6c0-2.9,2.4-5.1,5.2-5.1c2.8,0,5.2,2.4,5.1,5.2c-0.1,2.8-2.4,5.1-5.2,5.1
		C125,104.8,122.7,102.5,122.8,99.6z"/>
	<path class="st1" d="M290.7,183.9c0.1-2.9,2.3-5,5.3-4.9c2.8,0.1,4.8,2.4,4.7,5.2c-0.1,2.8-2.2,4.9-5,4.9
		C292.9,189.1,290.7,186.8,290.7,183.9z"/>
	<path class="st1" d="M206.1,91.4c-2.8,0-4.9-2.1-4.9-5c0-2.8,2.2-5,4.9-5c2.7,0,5,2.3,5,5C211.1,89.1,208.8,91.4,206.1,91.4z"/>
	<path class="st1" d="M90.1,86.5c-0.1-2.8,2.1-5.1,4.8-5.1c2.7,0,5,2.3,5,5c0,2.6-2.1,4.8-4.8,4.9C92.4,91.4,90.2,89.4,90.1,86.5z"
		/>
	<path class="st1" d="M271.1,142.8c0-2.7,2.3-5,5-5c2.8,0,4.9,2.3,4.9,5.1c-0.1,2.7-2.1,4.8-4.8,4.8
		C273.4,147.8,271.2,145.6,271.1,142.8z"/>
	<path class="st1" d="M266.9,124.8c0,2.8-2.2,5-5,4.9c-2.7,0-4.7-2-4.8-4.8c-0.1-2.8,2.1-5.1,4.8-5.2
		C264.5,119.8,266.9,122.1,266.9,124.8z"/>
	<path class="st1" d="M28,189.2c-2.8-0.1-4.8-2.3-4.7-5.2c0.1-2.6,2.3-4.8,4.9-4.8c2.7,0,5,2.4,4.9,5.1
		C33.1,187.1,30.8,189.3,28,189.2z"/>
	<path class="st1" d="M105.9,110.6c-2.8-0.1-4.9-2.3-4.7-5.1c0.1-2.7,2.2-4.8,4.9-4.8c2.7,0,5,2.3,5,5
		C110.9,108.4,108.7,110.6,105.9,110.6z"/>
	<path class="st1" d="M51.1,109.4c-0.1-2.7,1.9-4.8,4.6-4.9c2.7-0.1,4.8,2,4.9,4.6c0.1,2.7-2,4.8-4.6,4.9
		C53.2,114.1,51.1,112.1,51.1,109.4z"/>
	<path class="st1" d="M226.5,101.1c-2.6,0-4.8-2.4-4.7-4.9c0.1-2.5,2.2-4.5,4.7-4.5c2.7,0,4.7,2.1,4.6,4.8
		C231,99.1,229,101.1,226.5,101.1z"/>
	<path class="st1" d="M13.6,167.3c-2.5,0-4.6-2.2-4.6-4.7c0-2.5,2.1-4.6,4.6-4.6c2.6,0,4.6,2,4.5,4.6
		C18.2,165.2,16.1,167.3,13.6,167.3z"/>
	<path class="st1" d="M69.9,96.2c0.1-2.5,2.2-4.5,4.8-4.4c2.6,0.1,4.5,2.2,4.4,4.7c-0.1,2.5-2.3,4.6-4.7,4.5
		C72,100.9,69.9,98.7,69.9,96.2z"/>
	<path class="st1" d="M139.3,80.8c-2.4,0.1-4.5-1.9-4.6-4.3c-0.1-2.5,1.9-4.8,4.4-4.8c2.3-0.1,4.5,1.9,4.6,4.3
		C143.8,78.5,141.8,80.7,139.3,80.8z"/>
	<path class="st1" d="M157.4,76.4c-0.1-2.6,2-4.7,4.5-4.7c2.4,0,4.4,2,4.5,4.4c0.1,2.6-2,4.7-4.5,4.7
		C159.5,80.8,157.5,78.8,157.4,76.4z"/>
	<path class="st1" d="M-4.1,206.3c0-2.5,2-4.5,4.4-4.5c2.4,0,4.4,2.1,4.4,4.5c0,2.4-2,4.4-4.4,4.5C-2.2,210.8-4.1,208.8-4.1,206.3z"
		/>
	<path class="st1" d="M184.5,84.2c-2.3,0.1-4.5-1.9-4.6-4.3c-0.1-2.3,1.8-4.6,4.2-4.7c2.5-0.2,4.7,1.9,4.8,4.5
		C188.9,82,186.9,84.1,184.5,84.2z"/>
	<path class="st1" d="M116.7,84.1c-2.4,0-4.4-2.1-4.4-4.5c0-2.4,2.1-4.4,4.5-4.4c2.4,0,4.4,2,4.3,4.5
		C121.1,82.2,119.1,84.2,116.7,84.1z"/>
	<path class="st1" d="M292.7,122.6c-0.1,2.5-2,4.4-4.5,4.3c-2.4-0.1-4.4-2.1-4.3-4.5c0.1-2.4,2.1-4.4,4.5-4.3
		C290.9,118.1,292.7,120.1,292.7,122.6z"/>
	<path class="st1" d="M318.3,188.3c-2.4,0-4.4-2-4.4-4.5c0-2.4,1.8-4.2,4.2-4.3c2.4-0.1,4.5,1.9,4.6,4.3
		C322.7,186.1,320.7,188.3,318.3,188.3z"/>
	<path class="st1" d="M300.8,145.9c-2.4-0.1-4.3-2.1-4.2-4.6c0.1-2.4,2.1-4.3,4.6-4.2c2.3,0.1,4.1,2.1,4.1,4.4
		C305.3,144,303.2,146,300.8,145.9z"/>
	<path class="st1" d="M34.9,125c-0.1-2.5,1.9-4.5,4.3-4.5c2.2,0,4.2,2,4.3,4.2c0.1,2.4-1.9,4.4-4.3,4.4
		C36.8,129.1,35,127.4,34.9,125z"/>
	<path class="st1" d="M212.8,67.2c0-2.4,1.9-4.3,4.2-4.3c2.4,0,4.4,2.1,4.2,4.6c-0.1,2.4-2,4.2-4.4,4.1
		C214.5,71.5,212.7,69.6,212.8,67.2z"/>
	<path class="st1" d="M256.3,94.4c-2.3,0-4.3-1.9-4.4-4.2c-0.1-2.4,1.9-4.5,4.4-4.4c2.3,0,4.2,2,4.2,4.3
		C260.5,92.5,258.6,94.4,256.3,94.4z"/>
	<path class="st1" d="M24.9,147c-2.3,0-4.1-1.9-4.1-4.3c0-2.3,2-4.2,4.2-4.2c2.3,0.1,4.1,2,4.1,4.3C29.1,145.2,27.2,147.1,24.9,147z
		"/>
	<path class="st1" d="M5.4,188.3c-2.3,0-4.2-1.8-4.3-4.2c0-2.4,1.8-4.3,4.1-4.4c2.3-0.1,4.2,1.8,4.3,4.2
		C9.5,186.2,7.7,188.2,5.4,188.3z"/>
	<path class="st1" d="M311,166.3c-2.4,0-4.1-1.9-4.1-4.3c0.1-2.3,1.8-4,4.1-4c2.2,0,4.1,1.8,4.1,4
		C315.2,164.3,313.3,166.3,311,166.3z"/>
	<path class="st1" d="M237.5,81.4c-2.2,0.1-4.1-1.7-4.2-3.9c-0.1-2.2,1.7-4.1,3.9-4.2c2.2-0.1,4.1,1.7,4.1,4
		C241.5,79.5,239.7,81.3,237.5,81.4z"/>
	<path class="st1" d="M-13.9,162.1c0-2.2,1.9-4,4.1-4c2.1,0.1,3.8,1.9,3.8,4c0,2.1-1.8,3.9-3.8,4C-11.9,166.2-13.9,164.3-13.9,162.1
		z"/>
	<path class="st1" d="M277.3,105.4c-0.1,2.1-2,3.8-4.1,3.8c-2.1-0.1-3.8-2-3.8-4c0-2.2,2.1-4.1,4.2-3.9
		C275.7,101.4,277.4,103.4,277.3,105.4z"/>
	<path class="st1" d="M88,67.2c0,2.3-1.8,4.1-4,4c-2.1-0.1-3.8-1.7-3.8-3.9c0-2.2,1.5-3.9,3.7-4C86.2,63.2,88,64.9,88,67.2z"/>
	<path class="st1" d="M284.5,89.6c-2.2,0-3.8-1.7-3.8-3.9c0-2.2,1.6-3.8,3.8-3.9c2.3,0,4,1.8,3.9,4
		C288.4,88.1,286.7,89.7,284.5,89.6z"/>
	<path class="st1" d="M169.4,55.5c-0.1-2.1,1.7-3.9,3.8-3.9c2.3,0,3.6,1.3,3.8,3.6c0.2,2.2-1.5,4-3.6,4.1
		C171.3,59.3,169.4,57.6,169.4,55.5z"/>
	<path class="st1" d="M150.4,57.7c-2.2-0.1-3.9-1.9-3.7-4c0.1-2.1,2-3.9,4.1-3.7c2.3,0.2,3.5,1.6,3.5,3.9
		C154.4,56.1,152.6,57.7,150.4,57.7z"/>
	<path class="st1" d="M41,90.2c-0.1-2.1,1.7-4,3.8-3.9c2.3,0.1,3.6,1.4,3.7,3.7c0.1,2.3-1.2,3.6-3.4,3.9C43,94.2,41.1,92.4,41,90.2z
		"/>
	<path class="st1" d="M267.3,74.8c-2.1,0.1-3.9-1.7-3.8-3.9c0.1-2.3,1.4-3.6,3.7-3.7c2.3-0.1,3.6,1.3,3.8,3.5
		C271.2,72.8,269.4,74.8,267.3,74.8z"/>
	<path class="st1" d="M195.4,63.7c-2.1-0.2-3.5-1.4-3.6-3.7c-0.2-2.2,1.6-4.1,3.7-4c2.2,0.1,3.6,1.4,3.8,3.7
		C199.4,61.9,197.6,63.7,195.4,63.7z"/>
	<path class="st1" d="M128,59.2c-2.1,0.1-4.1-1.7-3.9-3.8c0.1-2.2,1.3-3.7,3.6-3.7c2.3-0.1,3.6,1.2,3.9,3.5
		C131.8,57.3,130.2,59.1,128,59.2z"/>
	<path class="st1" d="M12.7,126.2c-2.1,0-4-1.9-3.7-3.9c0.2-2.2,1.5-3.5,3.8-3.6c2.1-0.1,3.8,1.8,3.7,4
		C16.4,124.8,14.8,126.3,12.7,126.2z"/>
	<path class="st1" d="M-21.7,210.1c-2.3-0.3-3.6-1.5-3.7-3.8c-0.1-2.1,1.8-3.9,3.9-3.9c2.1,0.1,3.8,2,3.6,4.1
		C-18.1,208.9-19.5,210-21.7,210.1z"/>
	<path class="st1" d="M60,77.2c0.2-1.9,1.2-3.3,3.5-3.5c2.1-0.1,4,1.6,3.9,3.7c-0.2,2.2-1.4,3.5-3.7,3.7
		C61.8,81.2,60.1,79.4,60,77.2z"/>
	<path class="st1" d="M-0.2,145.3c-1.9-0.3-3.2-1.5-3.2-3.7c0-2.3,1.3-3.6,3.6-3.7c2.1-0.1,3.8,1.8,3.7,3.9
		C3.7,143.7,2,145.3-0.2,145.3z"/>
	<path class="st1" d="M105.7,63.5c-2.1,0-3.7-1.6-3.7-3.6c0-2,1.7-3.7,3.7-3.6c2.2,0.1,3.3,1.4,3.5,3.4
		C109.4,61.7,107.7,63.4,105.7,63.5z"/>
	<path class="st1" d="M-20.8,183.8c0-2,1.7-3.6,3.8-3.5c2,0.1,3.6,1.8,3.4,3.8c-0.2,2.1-1.4,3.3-3.6,3.4
		C-19.2,187.5-20.9,185.8-20.8,183.8z"/>
	<path class="st1" d="M296.7,102.3c0.5-2.2,1.7-3.6,3.8-3.4c2.1,0.2,3.3,1.6,3.1,3.8c-0.2,2.2-1.6,3.3-3.7,3.2
		C297.7,105.7,296.8,104.2,296.7,102.3z"/>
	<path class="st1" d="M224.5,47.9c0.3-2.1,1.4-3.3,3.6-3.2c2.1,0.1,3.2,1.4,3.2,3.4c0,2.1-1.3,3.5-3.5,3.5
		C225.8,51.5,224.6,50.2,224.5,47.9z"/>
	<path class="st1" d="M310.3,120.8c0.2-2.1,1.4-3.4,3.6-3.3c2,0.1,3.2,1.3,3.2,3.3c0,2.2-1.2,3.5-3.3,3.5
		C311.7,124.3,310.5,122.9,310.3,120.8z"/>
	<path class="st1" d="M24,104.4c1.3-0.9,2.5-2.3,3.8-2.5c1.9-0.3,3.2,1.2,3.3,3.2c0.1,2-1.7,3.9-3.4,3.3c-1.4-0.4-2.5-1.8-3.7-2.7
		C23.9,105.4,23.9,104.9,24,104.4z"/>
	<path class="st1" d="M15.8,89.6c-0.9-1.2-2.3-2.4-2.6-3.8c-0.3-1.9,1-3.3,3.1-3.4c2.2-0.1,3.7,1.2,3.4,3.3
		c-0.2,1.4-1.6,2.5-2.5,3.8C16.7,89.6,16.3,89.6,15.8,89.6z"/>
	<path class="st1" d="M77,48.8c-1.3,0.9-2.4,2.3-3.8,2.5c-1.9,0.3-3.3-1.1-3.3-3.2c0-2.2,1.3-3.7,3.4-3.3c1.4,0.2,2.5,1.7,3.7,2.6
		C77,47.9,77,48.4,77,48.8z"/>
	<path class="st1" d="M-8.9,121.7c-1.3,0.8-2.6,2.1-4,2.3c-1.9,0.3-3-1.2-3-3.1c0-2,1.3-3.6,3.3-3.2c1.4,0.2,2.5,1.7,3.8,2.6
		C-8.9,120.7-8.9,121.2-8.9,121.7z"/>
	<path class="st1" d="M30.1,70.4c1.2-0.9,2.4-2.4,3.8-2.6c2-0.3,3.5,1.3,3.2,3.2c-0.2,1.2-1.9,3-3,3.1c-1.2,0.1-2.6-1.4-3.9-2.3
		C30.2,71.4,30.1,70.9,30.1,70.4z"/>
	<path class="st1" d="M251.8,59.1c-1.2,0.8-2.3,2.2-3.5,2.4c-2,0.3-3.3-1.1-3.2-3.1c0-2,1.3-3.4,3.3-3c1.3,0.3,2.3,1.6,3.5,2.5
		C251.9,58.2,251.8,58.7,251.8,59.1z"/>
	<path class="st1" d="M138.4,36c-0.8-1.2-2.1-2.3-2.3-3.6c-0.3-2,1-3.2,3.1-3.2c1.9,0,3.3,1.3,3,3.1c-0.2,1.4-1.6,2.5-2.4,3.8
		C139.4,36,138.9,36,138.4,36z"/>
	<path class="st1" d="M161.2,36c-0.8-1.2-2.1-2.3-2.3-3.6c-0.4-2,1.1-3.6,3-3.2c1.2,0.2,2.9,1.9,3,3c0.1,1.2-1.5,2.5-2.3,3.8
		C162.1,36,161.7,36,161.2,36z"/>
	<path class="st1" d="M117.3,31.4c0.8,1.2,2.2,2.3,2.4,3.6c0.3,2-1.2,3.3-3.2,3.2c-1.8-0.1-3.2-1.3-2.9-3.2c0.3-1.3,1.6-2.4,2.4-3.6
		C116.4,31.4,116.9,31.4,117.3,31.4z"/>
	<path class="st1" d="M56.4,58.9c-1.1,0.9-2.2,2.3-3.5,2.5c-1.8,0.4-3.1-1-3.2-2.9c-0.1-1.9,1.1-3.4,2.9-3.1
		c1.3,0.1,2.4,1.4,3.7,2.2C56.4,58,56.4,58.5,56.4,58.9z"/>
	<path class="st1" d="M-24.8,144.2c-0.8-1.2-2.1-2.3-2.3-3.6c-0.3-1.8,1.1-3,3-3c1.9,0,3.3,1.3,3,3.1c-0.2,1.3-1.5,2.4-2.4,3.5
		C-23.9,144.2-24.3,144.2-24.8,144.2z"/>
	<path class="st1" d="M180.9,34.3c1.2-0.8,2.3-2.1,3.6-2.3c1.9-0.3,3,1.1,3.1,3c0,1.9-1.3,3.3-3.1,3c-1.3-0.2-2.4-1.6-3.6-2.4
		C180.9,35.2,180.9,34.7,180.9,34.3z"/>
	<path class="st1" d="M210,41c-1.1,0.8-2.2,2-3.4,2.1c-1.9,0.2-3.3-1.2-2.9-3c0.3-1.1,1.8-2.7,2.8-2.8c1.1,0,2.3,1.4,3.5,2.3
		C210,40.1,210,40.6,210,41z"/>
	<path class="st1" d="M93.7,43.6c-0.7-1.1-2-2.2-2.1-3.4c-0.2-1.8,1.3-3.3,3.1-2.8c1.1,0.3,2.5,1.9,2.6,3c0.1,1-1.4,2.2-2.2,3.3
		C94.6,43.7,94.2,43.7,93.7,43.6z"/>
	<path class="st1" d="M0.3,105.8c-0.8-1.1-2.3-2.3-2.2-3.3c0.1-1.1,1.6-2.5,2.8-2.8c0.7-0.2,2.5,1.5,2.6,2.5
		c0.1,1.1-1.1,2.3-1.8,3.5C1.3,105.7,0.8,105.8,0.3,105.8z"/>
</g>
<linearGradient id="SVGID_1_" gradientUnits="userSpaceOnUse" x1="148.3333" y1="300" x2="148.3333" y2="67.7807">
	<stop  offset="0.6266" style="stop-color:#1C1C1C"/>
	<stop  offset="0.7002" style="stop-color:#1F1F1F;stop-opacity:0.803"/>
	<stop  offset="0.7522" style="stop-color:#282828;stop-opacity:0.6638"/>
	<stop  offset="0.7975" style="stop-color:#383838;stop-opacity:0.5423"/>
	<stop  offset="0.8391" style="stop-color:#4E4E4E;stop-opacity:0.431"/>
	<stop  offset="0.878" style="stop-color:#6A6A6A;stop-opacity:0.3266"/>
	<stop  offset="0.9151" style="stop-color:#8D8D8D;stop-opacity:0.2274"/>
	<stop  offset="0.9506" style="stop-color:#B7B7B7;stop-opacity:0.1322"/>
	<stop  offset="0.9841" style="stop-color:#E6E6E6;stop-opacity:4.261869e-02"/>
	<stop  offset="1" style="stop-color:#FFFFFF;stop-opacity:0"/>
</linearGradient>
<rect x="-49" y="67.8" class="st2" width="394.7" height="232.2"/>
</svg>
